<?xml version="1.0" encoding="utf-8"?>
<!-- Generator: Adobe Illustrator 16.0.0, SVG Export Plug-In . SVG Version: 6.00 Build 0)  -->
<!DOCTYPE svg PUBLIC "-//W3C//DTD SVG 1.1//EN" "http://www.w3.org/Graphics/SVG/1.1/DTD/svg11.dtd">
<svg version="1.1" id="Layer_1" xmlns="http://www.w3.org/2000/svg" xmlns:xlink="http://www.w3.org/1999/xlink" x="0px" y="0px"
	 width="412px" height="83.87px" viewBox="0 0 412 83.87" enable-background="new 0 0 412 83.87" xml:space="preserve">
<g>
	<path fill="#B36748" d="M57.11,1.318h17.556L46.79,83.32H27.831L0.011,1.318h17.557l15.424,48.798
		c0.86,2.88,1.748,6.235,2.665,10.067c0.915,3.833,1.486,6.498,1.71,7.993c0.411-3.44,1.813-9.46,4.207-18.061L57.11,1.318z"/>
	<path fill="#A1645E" d="M135.187,83.32l-5.945-19.519H99.345L93.399,83.32H74.666l28.942-82.339h21.258L153.92,83.32H135.187z
		 M125.09,49.219c-5.496-17.687-8.591-27.689-9.282-30.008c-0.692-2.318-1.188-4.151-1.486-5.497
		c-1.234,4.787-4.768,16.622-10.602,35.505H125.09z"/>
	<path fill="#8F6270" d="M199.072,14.611c-6.544,0-11.61,2.459-15.2,7.376s-5.385,11.77-5.385,20.557
		c0,18.285,6.861,27.428,20.585,27.428c5.758,0,12.732-1.439,20.921-4.319v14.583c-6.73,2.805-14.246,4.207-22.548,4.207
		c-11.929,0-21.053-3.617-27.372-10.854c-6.319-7.235-9.479-17.62-9.479-31.157c0-8.525,1.551-15.994,4.655-22.408
		c3.104-6.412,7.562-11.33,13.378-14.751c5.813-3.421,12.628-5.132,20.444-5.132c7.964,0,15.966,1.926,24.006,5.776l-5.608,14.135
		c-3.066-1.458-6.152-2.729-9.255-3.813C205.11,15.154,202.063,14.611,199.072,14.611z"/>
	<path fill="#7C6082" d="M304.184,1.318v53.061c0,6.058-1.356,11.367-4.067,15.93c-2.711,4.562-6.628,8.058-11.75,10.488
		c-5.124,2.431-11.182,3.646-18.173,3.646c-10.545,0-18.734-2.701-24.567-8.104s-8.75-12.798-8.75-22.184V1.318h17.332v50.199
		c0,6.32,1.271,10.957,3.814,13.91c2.542,2.955,6.749,4.432,12.619,4.432c5.684,0,9.807-1.486,12.368-4.459
		c2.561-2.973,3.842-7.637,3.842-13.995V1.318H304.184z"/>
	<path fill="#675D94" d="M358.983,83.32l-19.744-64.334h-0.505c0.71,13.088,1.065,21.818,1.065,26.193V83.32h-15.536V1.318h23.669
		l19.407,62.708h0.337l20.585-62.708h23.669V83.32h-16.21V44.507c0-1.831,0.028-3.944,0.085-6.338
		c0.056-2.393,0.308-8.75,0.757-19.07h-0.505L374.912,83.32H358.983z"/>
</g>
<g>
	<linearGradient id="SVGID_1_" gradientUnits="userSpaceOnUse" x1="37.335" y1="76.4072" x2="37.335" y2="19.5176">
		<stop  offset="0" style="stop-color:#2B388F;stop-opacity:0.2"/>
		<stop  offset="1" style="stop-color:#2483C5;stop-opacity:0"/>
	</linearGradient>
	<path fill="url(#SVGID_1_)" d="M57.11,1.188h17.56L46.788,83.87H27.826L0,1.188h17.559L32.987,50.39
		c0.859,2.904,1.749,6.287,2.665,10.15c0.917,3.866,1.488,6.552,1.711,8.06c0.411-3.468,1.814-9.538,4.208-18.21L57.11,1.188z"/>
	<linearGradient id="SVGID_2_" gradientUnits="userSpaceOnUse" x1="114.3042" y1="76.4072" x2="114.3042" y2="19.5173">
		<stop  offset="0" style="stop-color:#2B388F;stop-opacity:0.2"/>
		<stop  offset="1" style="stop-color:#2483C5;stop-opacity:0"/>
	</linearGradient>
	<path fill="url(#SVGID_2_)" d="M135.202,83.87l-5.948-19.681H99.354L93.407,83.87H74.67l28.947-83.022h21.262l29.06,83.022H135.202
		z M125.104,49.485c-5.497-17.833-8.593-27.918-9.285-30.257c-0.691-2.337-1.188-4.185-1.486-5.542
		c-1.234,4.827-4.769,16.76-10.603,35.799H125.104z"/>
	<linearGradient id="SVGID_3_" gradientUnits="userSpaceOnUse" x1="191.8628" y1="76.4067" x2="191.8628" y2="19.5175">
		<stop  offset="0" style="stop-color:#2B388F;stop-opacity:0.2"/>
		<stop  offset="1" style="stop-color:#2483C5;stop-opacity:0"/>
	</linearGradient>
	<path fill="url(#SVGID_3_)" d="M199.1,14.59c-6.546,0-11.612,2.479-15.203,7.438c-3.59,4.958-5.386,11.868-5.386,20.727
		c0,18.437,6.863,27.655,20.589,27.655c5.759,0,12.735-1.452,20.925-4.354v14.704C213.293,83.587,205.775,85,197.473,85
		c-11.931,0-21.057-3.647-27.377-10.942c-6.321-7.295-9.48-17.767-9.48-31.416c0-8.597,1.551-16.127,4.656-22.594
		c3.104-6.466,7.564-11.424,13.379-14.874C184.466,1.725,191.282,0,199.1,0c7.965,0,15.969,1.943,24.011,5.825l-5.61,14.252
		c-3.067-1.471-6.153-2.752-9.256-3.846C205.14,15.138,202.091,14.59,199.1,14.59z"/>
	<linearGradient id="SVGID_4_" gradientUnits="userSpaceOnUse" x1="270.5718" y1="76.4067" x2="270.5718" y2="19.5175">
		<stop  offset="0" style="stop-color:#2B388F;stop-opacity:0.2"/>
		<stop  offset="1" style="stop-color:#2483C5;stop-opacity:0"/>
	</linearGradient>
	<path fill="url(#SVGID_4_)" d="M304.232,1.188v53.5c0,6.108-1.356,11.462-4.068,16.062c-2.712,4.601-6.629,8.125-11.753,10.575
		C283.287,83.776,277.228,85,270.235,85c-10.547,0-18.738-2.723-24.572-8.171c-5.834-5.447-8.752-12.903-8.752-22.368V1.188h17.335
		v50.616c0,6.372,1.271,11.047,3.814,14.025c2.543,2.979,6.751,4.468,12.623,4.468c5.685,0,9.808-1.499,12.371-4.496
		c2.561-2.997,3.842-7.7,3.842-14.11V1.188H304.232z"/>
	<linearGradient id="SVGID_5_" gradientUnits="userSpaceOnUse" x1="368.1577" y1="76.4072" x2="368.1577" y2="19.5176">
		<stop  offset="0" style="stop-color:#2B388F;stop-opacity:0.2"/>
		<stop  offset="1" style="stop-color:#2483C5;stop-opacity:0"/>
	</linearGradient>
	<path fill="url(#SVGID_5_)" d="M359.042,83.87l-19.747-64.868h-0.505c0.71,13.197,1.065,22,1.065,26.411V83.87h-15.539V1.188
		h23.674L367.4,64.415h0.337l20.589-63.228H412V83.87h-16.213V44.735c0-1.847,0.028-3.978,0.084-6.392
		c0.057-2.413,0.309-8.822,0.758-19.228h-0.505l-21.15,64.754H359.042z"/>
</g>
</svg>
